<?xml version="1.0" standalone="no"?>
<!DOCTYPE svg PUBLIC "-//W3C//DTD SVG 20010904//EN"
 "http://www.w3.org/TR/2001/REC-SVG-20010904/DTD/svg10.dtd">
<svg version="1.0" xmlns="http://www.w3.org/2000/svg"
 width="700.000000pt" height="700.000000pt" viewBox="0 0 700.000000 700.000000"
 preserveAspectRatio="xMidYMid meet">
<metadata>
Created by potrace 1.14, written by Peter Selinger 2001-2017
</metadata>
<g transform="translate(0.000000,700.000000) scale(0.100000,-0.100000)"
fill="#000000" stroke="none">
<path d="M3238 5976 c-1 -2 -64 -7 -138 -10 -74 -4 -148 -9 -165 -11 -16 -2
-61 -7 -100 -10 -38 -3 -77 -8 -85 -10 -8 -2 -40 -6 -71 -10 -31 -3 -65 -7
-75 -9 -11 -2 -44 -7 -74 -11 -75 -10 -336 -61 -436 -86 -45 -11 -90 -21 -100
-24 -125 -27 -475 -141 -644 -210 -128 -52 -343 -156 -435 -210 -33 -19 -71
-40 -85 -47 -41 -21 -210 -138 -280 -194 -302 -241 -463 -466 -537 -749 -11
-43 -14 -1669 -3 -1735 22 -131 84 -276 174 -410 69 -101 277 -309 408 -406
347 -258 796 -465 1312 -605 113 -31 357 -87 411 -96 17 -2 62 -10 100 -18 39
-8 93 -17 120 -20 28 -3 59 -8 71 -10 11 -2 45 -7 75 -11 30 -3 65 -7 79 -10
14 -2 59 -6 100 -10 41 -3 86 -7 100 -10 159 -24 980 -24 1105 1 11 2 49 7 85
10 36 3 79 8 95 10 17 2 50 7 75 10 25 3 59 7 75 10 17 2 48 7 70 10 207 28
555 107 795 182 468 145 866 340 1170 574 284 218 470 463 542 714 l23 80 0
840 c0 462 -4 862 -8 888 -10 65 -57 191 -99 269 -52 96 -110 174 -200 273
-233 253 -578 478 -1013 660 -126 53 -155 64 -155 59 0 -2 -9 0 -21 7 -97 51
-585 186 -846 233 -15 3 -39 8 -53 10 -14 3 -43 8 -65 11 -22 3 -53 8 -70 10
-16 3 -43 7 -60 10 -62 10 -182 25 -230 29 -27 2 -81 7 -120 11 -38 4 -92 9
-120 11 -60 5 -692 14 -697 10z m516 -1600 c65 -4 128 -9 138 -11 11 -3 46 -7
77 -11 31 -3 63 -8 73 -9 9 -2 38 -7 65 -10 26 -4 64 -11 83 -15 19 -5 46 -11
60 -14 99 -17 283 -75 380 -118 l55 -25 -40 -17 c-129 -56 -409 -133 -548
-151 -26 -3 -69 -9 -95 -14 -26 -5 -54 -9 -62 -9 -8 0 -35 -2 -60 -6 -91 -12
-200 -17 -385 -16 -197 1 -230 2 -355 14 -79 8 -98 10 -168 21 -23 4 -52 8
-65 10 -45 5 -203 37 -232 45 -16 5 -77 23 -134 40 -57 17 -127 42 -156 56
-30 13 -60 24 -67 24 -19 1 28 25 105 54 120 45 319 97 465 121 17 3 44 7 60
10 15 2 50 7 77 10 28 3 60 7 71 9 12 2 75 7 140 11 66 4 120 8 121 9 4 4 293
-2 397 -8z"/>
</g>
</svg>
